/* XPM */
static char *image_xpm[] = {
/* width height ncolors chars_per_pixel */
"16 16 75 1",
"  c #000000",
". c #010101",
"+ c #020202",
"@ c #030303",
"# c #f7f7f7",
"$ c #050505",
"% c #414141",
"& c #060606",
"* c #6e6d6d",
"= c #070707",
"- c #373838",
"; c #c8c8c8",
"> c #414242",
", c #646464",
"' c #363637",
") c #cdcecf",
"! c #ffffff",
"~ c #d4d4d4",
"{ c #dddddd",
"] c #c2c3c4",
"^ c #535252",
"/ c #585859",
"( c #4b4a4a",
"_ c #cacacb",
": c #e1e1e2",
"< c #e6e7e8",
"[ c #5f5f5f",
"} c #0b0b0b",
"| c #eeeeee",
"1 c #cbcbcb",
"2 c #353535",
"3 c #9f9f9f",
"4 c #4c4b4b",
"5 c #7e7e7e",
"6 c #e6e6e7",
"7 c #959698",
"8 c #cecfd0",
"9 c #babbbc",
"0 c #7b7c7d",
"a c #3a3a3b",
"b c #aaaaaa",
"c c #e9e9ea",
"d c #c1c2c3",
"e c #656666",
"f c #e5e6e6",
"g c #676869",
"h c #686868",
"i c #e2e2e3",
"j c #8a8b8c",
"k c #b4b5b6",
"l c #98989a",
"m c #fdfdfd",
"n c #727272",
"o c #aaabac",
"p c #a5a6a7",
"q c #fefefe",
"r c #b3b4b5",
"s c #949393",
"t c #1f1e1e",
"u c #9e9d9d",
"v c #292929",
"w c #777879",
"x c #383838",
"y c #6c6b6b",
"z c #4d4d4e",
"A c #9c9b9c",
"B c #cfcfd0",
"C c #c6c7c8",
"D c #9d9e9f",
"E c #141414",
"F c #afb0b1",
"G c #e8e9e9",
"H c #b9babb",
"I c #a2a2a2",
"J c #fcfcfc",
"!q############q!",
"cjeeeeeeeeeeeejc",
"r              k",
"9       $t     9",
"8@ 4uuuuI*uu( .)",
"<a %~b33333;x 2f",
"m0 &{[     5@ wJ",
"!F  ,1+    E  o!",
"!6> .Ah      ':!",
"!!p  }s^+}   D!!",
"!!|g  =ny=  /G!!",
"!!!B-      vC!!!",
"!!!!d'    vH!!!!",
"!!!!!_/  z]!!!!!",
"!!!!!!6l7i!!!!!!",
"!!!!!!!!!!!!!!!!",
};