/* XPM */
static char *image_xpm[] = {
/* width height ncolors chars_per_pixel */
"32 32 179 2",
"   c #000000",
" . c #606060",
" + c #f0f0f0",
" @ c #010101",
" # c #020202",
" $ c #39393a",
" % c #030303",
" & c #f7f7f7",
" * c #040404",
" = c #050404",
" - c #807f7f",
" ; c #b5b7b9",
" > c #848383",
" , c #eeefef",
" ' c #ececec",
" ) c #414141",
" ! c #98999b",
" ~ c #060606",
" { c #969799",
" ] c #919090",
" ^ c #bbbdbf",
" / c #070707",
" ( c #2a2a2a",
" _ c #080707",
" : c #dddedf",
" < c #f9f9f9",
" [ c #1a191a",
" } c #323233",
" | c #313031",
" 1 c #c0c1c3",
" 2 c #a1a3a5",
" 3 c #eeeeef",
" 4 c #1e1d1d",
" 5 c #9fa0a2",
" 6 c #dfdede",
" 7 c #ffffff",
" 8 c #111111",
" 9 c #898a8c",
" 0 c #d4d5d6",
" a c #a8a6a6",
" b c #2a2929",
" c c #686869",
" d c #717171",
" e c #e1e1e2",
" f c #e2e1e1",
" g c #88898b",
" h c #1a1a1a",
" i c #a8aaac",
" j c #cacbcd",
" k c #8a8b8d",
" l c #d7d8d9",
" m c #2b2c2c",
" n c #0b0b0b",
" o c #e4e4e5",
" p c #424343",
" q c #999798",
" r c #8c8d8e",
" s c #353535",
" t c #d6d5d5",
" u c #9f9f9f",
" v c #4f4f4f",
" w c #e6e6e7",
" x c #d8d8d8",
" y c #828282",
" z c #999a9c",
" A c #767778",
" B c #494848",
" C c #858687",
" D c #262626",
" E c #b0aeaf",
" F c #444243",
" G c #393839",
" H c #0c0c0c",
" I c #dddcdc",
" J c #3a3a3b",
" K c #9e9fa1",
" L c #e9e9ea",
" M c #afb0b2",
" N c #cdced0",
" O c #d2d1d1",
" P c #646566",
" Q c #bfbdbe",
" R c #d2d2d4",
" S c #c3c4c6",
" T c #a3a5a7",
" U c #1c1c1d",
" V c #b4b5b8",
" W c #f3f3f4",
" X c #a6a7aa",
" Y c #0e0d0d",
" Z c #0d0d0e",
" ` c #f4f4f4",
".  c #a9abad",
".. c #cfcece",
".+ c #222222",
".@ c #dcdcdc",
".# c #a4a6a8",
".$ c #575758",
".% c #abacaf",
".& c #97999a",
".* c #373737",
".= c #8a8b8c",
".- c #898888",
".; c #9b9d9f",
".> c #b3b4b6",
"., c #b2b4b6",
".' c #d8d9da",
".) c #9a9898",
".! c #fbfbfb",
".~ c #a1a2a5",
".{ c #333434",
".] c #8b8b8b",
".^ c #131313",
"./ c #fdfdfd",
".( c #c7c6c6",
"._ c #afadad",
".: c #8d8c8c",
".< c #f4f5f5",
".[ c #b0b2b4",
".} c #9c9da0",
".| c #929395",
".1 c #9b9c9e",
".2 c #939496",
".3 c #a7a5a6",
".4 c #bebdbe",
".5 c #fefefe",
".6 c #212121",
".7 c #6a6a6a",
".8 c #676767",
".9 c #e9eaea",
".0 c #f1f2f2",
".a c #d0d1d2",
".b c #c7c8ca",
".c c #989a9b",
".d c #1b1b1b",
".e c #7c7d7e",
".f c #a0a2a4",
".g c #191919",
".h c #9e9d9d",
".i c #0f0f0f",
".j c #292929",
".k c #9b9999",
".l c #9ea0a2",
".m c #b3b1b2",
".n c #838383",
".o c #f7f8f8",
".p c #bdbcbc",
".q c #a4a5a8",
".r c #6f6e6f",
".s c #8d8b8c",
".t c #f8f8f9",
".u c #8d8e90",
".v c #bec0c1",
".w c #bfc0c2",
".x c #323132",
".y c #ebebec",
".z c #8c8c8c",
".A c #abadaf",
".B c #c4c5c7",
".C c #9f9d9e",
".D c #babbbd",
".E c #919294",
".F c #555555",
".G c #efeff0",
".H c #464647",
".I c #7f8082",
".J c #97989a",
".K c #949597",
".L c #dadadb",
".M c #b2b3b5",
".N c #918f90",
".O c #817f80",
".P c #6f7071",
".Q c #9d9ea0",
".R c #fcfcfc",
".S c #efefef",
".T c #747576",
".U c #767475",
".V c #afb0b3",
" 7 7 7 7 7 7 7 7 7 7 7 7 7 7 7 7 7 7 7 7 7 7 7 7 7 7 7 7 7 7 7 7",
" 7 7 7.t.G , , , , , , , , , , , , , , , , , , , , , ,.G.t 7 7 7",
" 7 & ;.l ! ! ! ! ! ! ! ! ! ! ! ! ! ! ! ! ! ! ! ! ! ! ! !.l ;.o 7",
" 7 M.$                                                    .$.V 7",
".y.&                                                         ! '",
" e g                                                         g e",
".9.2                                                        .| L",
".<.;                              .^ F b                    .1 `",
" 7.~         %.7 d d d d d d d d -.-.*.] d d d d d %        .f 7",
" 7.% /       # a._._._._._._._._._.: 4.)._._._._.k         %.  7",
" 7.v p        .N Q Q Q Q Q Q Q Q Q Q Q Q Q Q Q Q.O         $ ^ 7",
" 7 l.e         ..... ].7.7.7.7.7.7.7.7.7.7.7.h.. v        .T 0 7",
" 7 W.Q        .g I 6 y                       ) t Y         z.G 7",
" 7 7 i.i         u.S.@ ~                     s.z         * X 7 7",
" 7 7 j c         (.! 7.8                    .* h        .$.B 7 7",
" 7 7.0 K          .n + x n                               !.y 7 7",
" 7 7 7.,.{         _.p f >                             U.A 7 7 7",
" 7 7 7 o {          .6.( O B                           k.L 7 7 7",
" 7 7 7 7.[ }          .x.4.4 G                      .d i.5 7 7 7",
" 7 7 7 7 L.}             | E.m.F % =.j              .E : 7 7 7 7",
" 7 7 7 7 7.w P             D q.3.C.s [            .H.M 7 7 7 7 7",
" 7 7 7 7 7 <.#.+             8.U.r n             Z 2.0 7 7 7 7 7",
" 7 7 7 7 7 7 w.l *             # @              .J.' 7 7 7 7 7 7",
" 7 7 7 7 7 7 7.a.K                            .I 1 7 7 7 7 7 7 7",
" 7 7 7 7 7 7 7 7 S.=                        .P V.5 7 7 7 7 7 7 7",
" 7 7 7 7 7 7 7 7 7.w r @                   A.>.R 7 7 7 7 7 7 7 7",
" 7 7 7 7 7 7 7 7 7 7.b.c H             *.u.D./ 7 7 7 7 7 7 7 7 7",
" 7 7 7 7 7 7 7 7 7 7 7.' 2 J         m 5 N 7 7 7 7 7 7 7 7 7 7 7",
" 7 7 7 7 7 7 7 7 7 7 7 7 3.A 9 Z H C i L 7 7 7 7 7 7 7 7 7 7 7 7",
" 7 7 7 7 7 7 7 7 7 7 7 7 7 7 0.q T R./ 7 7 7 7 7 7 7 7 7 7 7 7 7",
" 7 7 7 7 7 7 7 7 7 7 7 7 7 7 7.R.R 7 7 7 7 7 7 7 7 7 7 7 7 7 7 7",
" 7 7 7 7 7 7 7 7 7 7 7 7 7 7 7 7 7 7 7 7 7 7 7 7 7 7 7 7 7 7 7 7",
};