/* XPM */
static char *image_xpm[] = {
/* width height ncolors chars_per_pixel */
"64 64 255 2",
"   c #000000",
" . c #d0d0d0",
" + c #010101",
" @ c #020202",
" # c #030303",
" $ c #7c7b7b",
" % c #726f70",
" & c #f7f7f7",
" * c #8f8d8e",
" = c #040404",
" - c #3f3f40",
" ; c #666565",
" > c #656566",
" , c #dbdbdc",
" ' c #807f7f",
" ) c #353536",
" ! c #9d9ea1",
" ~ c #eeefef",
" { c #8e8e8e",
" ] c #59595a",
" ^ c #aeacad",
" / c #b7b8ba",
" ( c #151414",
" _ c #b1b3b5",
" : c #969799",
" < c #070606",
" [ c #828081",
" } c #424141",
" | c #f2f2f2",
" 1 c #070707",
" 2 c #878889",
" 3 c #dddedf",
" 4 c #f9f9f9",
" 5 c #373838",
" 6 c #636465",
" 7 c #080808",
" 8 c #414242",
" 9 c #101111",
" 0 c #999a9d",
" a c #a0a2a5",
" b c #505151",
" c c #969494",
" d c #f3f3f3",
" e c #d3d4d5",
" f c #a1a3a5",
" g c #c9cacc",
" h c #d5d4d4",
" i c #090909",
" j c #ffffff",
" k c #888686",
" l c #898a8c",
" m c #9d9fa1",
" n c #393939",
" o c #989a9d",
" p c #bfbebf",
" q c #2d2d2d",
" r c #949699",
" s c #7f7e7e",
" t c #e0e0e1",
" u c #525253",
" v c #a7a9ab",
" w c #97999b",
" x c #151515",
" y c #5c5d5d",
" z c #686869",
" A c #585859",
" B c #cbcaca",
" C c #717171",
" D c #adafb1",
" E c #a4a2a3",
" F c #dedfdf",
" G c #1f1f1f",
" H c #e1e1e2",
" I c #cacbcc",
" J c #797a7b",
" K c #a8aaac",
" L c #d9dadb",
" M c #737373",
" N c #e3e3e4",
" O c #8a8b8d",
" P c #696667",
" Q c #d7d8d9",
" R c #2b2c2c",
" S c #0b0b0b",
" T c #797777",
" U c #c8c9cb",
" V c #999798",
" W c #7d7e7f",
" X c #818283",
" Y c #a6a5a5",
" Z c #dedfe0",
" ` c #757474",
".  c #e6e6e7",
".. c #181818",
".+ c #474747",
".@ c #999a9c",
".# c #9fa0a3",
".$ c #333333",
".% c #494848",
".& c #aaa9a9",
".* c #959698",
".= c #878586",
".- c #aeadad",
".; c #999999",
".> c #cecfd0",
"., c #121212",
".' c #dcdcdd",
".) c #555454",
".! c #929191",
".~ c #cac9c9",
".{ c #2f3030",
".] c #afafaf",
".^ c #979595",
"./ c #7b7c7d",
".( c #0d0c0c",
"._ c #4d4d4d",
".: c #c2c3c5",
".< c #cccdcf",
".[ c #7d7d7f",
".} c #afb0b2",
".| c #7a7879",
".1 c #858384",
".2 c #585758",
".3 c #edeeee",
".4 c #c4c5c6",
".5 c #202121",
".6 c #201f1f",
".7 c #2b2a2a",
".8 c #eaeaeb",
".9 c #6b6c6d",
".0 c #989697",
".a c #a3a5a7",
".b c #1c1c1d",
".c c #f3f3f4",
".d c #9a9c9f",
".e c #525354",
".f c #f4f4f4",
".g c #9b9da0",
".h c #7a7a7c",
".i c #c5c6c8",
".j c #9e9fa2",
".k c #222222",
".l c #b4b5b7",
".m c #a4a6a8",
".n c #dcdcdc",
".o c #d5d6d7",
".p c #5e5d5e",
".q c #b7b9bb",
".r c #8c8a8b",
".s c #c8c7c7",
".t c #c5c4c4",
".u c #9b9d9f",
".v c #d8d7d7",
".w c #b6b4b5",
".x c #b2b4b6",
".y c #fbfbfb",
".z c #a6a4a5",
".A c #fdfdfd",
".B c #e5e5e6",
".C c #b5b5b5",
".D c #555556",
".E c #fafafa",
".F c #afadad",
".G c #838486",
".H c #9a9c9e",
".I c #f4f5f5",
".J c #9c9da0",
".K c #929395",
".L c #313131",
".M c #ededee",
".N c #939496",
".O c #cbccce",
".P c #3c3c3c",
".Q c #f2f3f3",
".R c #9e9c9c",
".S c #858688",
".T c #fefefe",
".U c #c3c2c2",
".V c #ababab",
".W c #636162",
".X c #616263",
".Y c #141313",
".Z c #d8d8d9",
".` c #d9d8d8",
"+  c #232324",
"+. c #bbbcbe",
"++ c #898989",
"+@ c #6a6a6a",
"+# c #f1f2f2",
"+$ c #eae9ea",
"+% c #999b9e",
"+& c #96989b",
"+* c #c7c8ca",
"+= c #606162",
"+- c #989a9b",
"+; c #1b1b1b",
"+> c #939598",
"+, c #9c9ea0",
"+' c #b1b1b1",
"+) c #828384",
"+! c #0f0f0f",
"+~ c #9c9ea1",
"+{ c #cdcccc",
"+] c #9f9d9d",
"+^ c #9ea0a2",
"+/ c #4e4f4f",
"+( c #a5a3a4",
"+_ c #131414",
"+: c #b5b6b9",
"+< c #474848",
"+[ c #bdbcbc",
"+} c #f8f8f8",
"+| c #6b6b6c",
"+1 c #9d9b9b",
"+2 c #e5e5e5",
"+3 c #a4a5a8",
"+4 c #bcbdbf",
"+5 c #8b8c8d",
"+6 c #c1c3c4",
"+7 c #97999c",
"+8 c #918f8f",
"+9 c #b7b6b6",
"+0 c #bfc0c2",
"+a c #bec0c1",
"+b c #aaabae",
"+c c #ecebeb",
"+d c #ebebec",
"+e c #95979a",
"+f c #494a4b",
"+g c #e1e1e1",
"+h c #abadaf",
"+i c #959798",
"+j c #c4c5c7",
"+k c #9f9d9e",
"+l c #babbbd",
"+m c #efeff0",
"+n c #d1d2d3",
"+o c #eff0f0",
"+p c #979596",
"+q c #9a9b9d",
"+r c #e4e3e4",
"+s c #cfd0d1",
"+t c #e3e4e4",
"+u c #6e6e6e",
"+v c #8b8a8b",
"+w c #949597",
"+x c #141414",
"+y c #bebfc1",
"+z c #fafafb",
"+A c #9fa1a4",
"+B c #19191a",
"+C c #171717",
"+D c #5f6061",
"+E c #fcfcfc",
"+F c #8f9092",
" j j j j j j j j j j j j j j j j j j j j j j j j j j j j j j j j j j j j j j j j j j j j j j j j j j j j j j j j j j j j j j j j",
" j j j j j j j j j j j j j j j j j j j j j j j j j j j j j j j j j j j j j j j j j j j j j j j j j j j j j j j j j j j j j j j j",
" j j j j j j j j j j j j j j j j j j j j j j j j j j j j j j j j j j j j j j j j j j j j j j j j j j j j j j j j j j j j j j j j",
" j j j j j j.E.  F 3 3 3 3 3 3 3 3 3 3 3 3 3 3 3 3 3 3 3 3 3 3 3 3 3 3 3 3 3 3 3 3 3 3 3 3 3 3 3 3 3 3 3 3 3 3 F.B 4 j j j j j j",
" j j j j+m.q+e+>+>+>+>+>+>+>+>+>+>+>+>+>+>+>+>+>+>+>+>+>+>+>+>+>+>+>+>+>+>+>+>+>+>+>+>+>+>+>+>+>+>+>+>+>+>+>+>+>+>+e /+m j j j j",
" j j j.'+7+&+i.9.e b b b b b b b b b b b b b b b b b b b b b b b b b b b b b b b b b b b b b b b b b b b b b b.e.9+i+&+7.' j j j",
" j j. +e+^.{                                                                                                        .L+^+e.  j j",
" j.T.m.J.5                                                                                                            .5.g.m j j",
" j N+> J                                                                                                                .h+> N j",
" j U+> G                                                                                                                 G+> U j",
" j+0+&                                                                                                                    +&+0 j",
" j.4 r =                                                                                                                 = r.4 j",
" j.>+>+                                                                                                                 .k+>.> j",
" j.Z+> 8                                                                                                                 -+> Q j",
" j N+>+D                                                                  +C (                                           y+> H j",
" j+#+> W                                                            .,.% '.R.!+C                                        .h+>+m j",
" j.T+e.K                    .7.%.%.%.%.%.%.%.%.%.%.%.%.%.%.%.%.%._ s+( E+u.|.z.r.%.%.%.%.%.%.%.%.%.% S                  +F r.A j",
" j j+3 !                   9 ^.F.F.F.F.F.F.F.F.F.F.F.F.F.F.F.F.F.F.F.F.)     T.F.F.F.F.F.F.F.F.F.F.F 7                  .u a j j",
" j j+:+~                   S+9+9+9+9+9+9+9+9+9+9+9+9+9+9+9+9+9+9+9+9+9 }     ;+9+9+9+9+9+9+9+9+9+9 Y                    .j _ j j",
" j j I+>.b                  .& p p p p p p p p p p p p p p p p p p p p.z n.+.C p p p p p p p p p p++                  +! r.i j j",
" j j Z+>.2                  .1.s.s.s.s.s.s.s.s.s.s.s.s.s.s.s.s.s.s.s.s.s.s.s.s.s.s.s.s.s.s.s.s.s.s >                  +f+> L j j",
" j j.I+> 2                  .) . . . . . . . . . . . . . . . . . . . . . . . . . . . . . . . . . ..$                   W+> ~ j j",
" j j j.a m                  +B.v.`.`.`.`.`.`.`.`.`.`.`.`.`.`.`.`.`.`.`.`.`.`.`.`.`.`.`.`.`.`.`.` B =                  +q.J j j j",
" j j j+4+% =                  +'+g+g+g+g.V 1 1 1 1 1 1 1 1 1 1 1 1 1 1 1 1 1 1 1 1 1 1 1.. B+g+g {                    +~+: j j j",
" j j j.Z+>+/                   y+$+$+$+$+r i                                              .;+$+$.P                   )+>+s j j j",
" j j j & r+5                   S+2 | | | |+/                                               s | .                    .[+>.M j j j",
" j j j j+b.#                    +8.y.y.y.y.]                                               C.y+@                     !+A j j j j",
" j j j j.O+>.L                  +;.f.y.y.y+}.b                                             C+t i                   x+&+0 j j j j",
" j j j j+o+>.G                    +v d d d d++                                             M z                    +u+>+t j j j j",
" j j j j j K+^                    +x.n+c+c+c+g+x                                           y =                    +,+~.T j j j j",
" j j j j j+n+>+<                    .p+r+r+r+r++                                                                .k+e.: j j j j j",
" j j j j j+}+&.*                     @.V.n.n.n , R                                                               X+>.M j j j j j",
" j j j j j j+l+7+B                    .b.~ h h h.& #                                                           #.j+b j j j j j j",
" j j j j j j.8+>.G                      ._+{+{+{+{ ;                                                          +=+>.Z j j j j j j",
" j j j j j j j D.g.(                       `.t.t.t.U.$                                                        +^+^.A j j j j j j",
" j j j j j j j H+>.[                       =+8+[+[+[.-+;                                                    +/+>.< j j j j j j j",
" j j j j j j j j+h.J+!                      .(.0.w.w.w+k+x                                                  .j.g.E j j j j j j j",
" j j j j j j j j N+>.S                        +x V ^ ^ ^+p..                                               A+>.< j j j j j j j j",
" j j j j j j j j j.x 0+                          x.! Y Y Y V.7                                           #.#+A.y j j j j j j j j",
" j j j j j j j j j.3+e.@                          .Y k+]+]+]+1.2 i    .(.P.) #                           J+> Q j j j j j j j j j",
" j j j j j j j j j j+j+> A                          .( T.^.^.^.^+8 $.= c ; =                           G.H+h j j j j j j j j j j",
" j j j j j j j j j j+z a m.,                           <.W * * * * * *+/ +                            .H+e+d j j j j j j j j j j",
" j j j j j j j j j j j+t r :                               }.1.=.= [.{                              +|+>+* j j j j j j j j j j j",
" j j j j j j j j j j j j+6+> z                              .6 % P (                               q+% v.A j j j j j j j j j j j",
" j j j j j j j j j j j j+E v 0 )                               < #                               i+^+7.3 j j j j j j j j j j j j",
" j j j j j j j j j j j j j+m+%+^+_                                                              .N+>.o j j j j j j j j j j j j j",
" j j j j j j j j j j j j j j 3 r+, =                                                          ./+>+a j j j j j j j j j j j j j j",
" j j j j j j j j j j j j j j j.<+>+w                                                        .X+e.}.A j j j j j j j j j j j j j j",
" j j j j j j j j j j j j j j j j+y+> O                                                     u w.m+} j j j j j j j j j j j j j j j",
" j j j j j j j j j j j j j j j j.T /+> l                                                .D o a.f j j j j j j j j j j j j j j j j",
" j j j j j j j j j j j j j j j j j.A /+>+5                                             ]+7 f+# j j j j j j j j j j j j j j j j j",
" j j j j j j j j j j j j j j j j j j.T.q+>.N =                                      +@+&.a.c j j j j j j j j j j j j j j j j j j",
" j j j j j j j j j j j j j j j j j j j.T+y+>+, 9                                  .S r v.I j j j j j j j j j j j j j j j j j j j",
" j j j j j j j j j j j j j j j j j j j j j.O r+^.L                             9+-+>.l+z j j j j j j j j j j j j j j j j j j j j",
" j j j j j j j j j j j j j j j j j j j j j j , o+% >                         -+^ r+j.T j j j j j j j j j j j j j j j j j j j j j",
" j j j j j j j j j j j j j j j j j j j j j j j.3+3+>+i+_                 =+) w.d 3 j j j j j j j j j j j j j j j j j j j j j j j",
" j j j j j j j j j j j j j j j j j j j j j j j j.E+y+> m 6            .+.#+>.} | j j j j j j j j j j j j j j j j j j j j j j j j",
" j j j j j j j j j j j j j j j j j j j j j j j j j j t a+> m 5     R.@+>.d e j j j j j j j j j j j j j j j j j j j j j j j j j j",
" j j j j j j j j j j j j j j j j j j j j j j j j j j j+E g+7+e+i.*+&+e.: & j j j j j j j j j j j j j j j j j j j j j j j j j j j",
" j j j j j j j j j j j j j j j j j j j j j j j j j j j j j+#+.+e+e+l+o j j j j j j j j j j j j j j j j j j j j j j j j j j j j j",
" j j j j j j j j j j j j j j j j j j j j j j j j j j j j j j j.Q.c j j j j j j j j j j j j j j j j j j j j j j j j j j j j j j j",
" j j j j j j j j j j j j j j j j j j j j j j j j j j j j j j j j j j j j j j j j j j j j j j j j j j j j j j j j j j j j j j j j",
" j j j j j j j j j j j j j j j j j j j j j j j j j j j j j j j j j j j j j j j j j j j j j j j j j j j j j j j j j j j j j j j j",
" j j j j j j j j j j j j j j j j j j j j j j j j j j j j j j j j j j j j j j j j j j j j j j j j j j j j j j j j j j j j j j j j",
};