/* XPM */
static char *piratecash64[] = {
/* columns rows colors chars-per-pixel */
"64 64 213 2 ",
"   c black",
".  c #010101",
"X  c #020202",
"o  c gray1",
"O  c #040404",
"+  c #060606",
"@  c gray3",
"#  c gray4",
"$  c #0B0B0B",
"%  c gray7",
"&  c #131313",
"*  c #151515",
"=  c #161616",
"-  c #181818",
";  c #191919",
":  c gray10",
">  c #1B1B1B",
",  c #1D1D1D",
"<  c #1E1E1E",
"1  c gray13",
"2  c #222222",
"3  c gray14",
"4  c #252525",
"5  c #272727",
"6  c #282828",
"7  c gray17",
"8  c #2C2C2C",
"9  c #2D2D2D",
"0  c gray18",
"q  c gray19",
"w  c #313131",
"e  c #323232",
"r  c #343434",
"t  c #353535",
"y  c #373737",
"u  c gray22",
"i  c #393939",
"p  c #3A3A3A",
"a  c gray23",
"s  c #3C3C3C",
"d  c gray24",
"f  c #3E3E3E",
"g  c #3F3F3F",
"h  c gray25",
"j  c gray26",
"k  c #444444",
"l  c gray27",
"z  c gray28",
"x  c #494949",
"c  c gray29",
"v  c #4B4B4B",
"b  c #4C4C4C",
"n  c gray30",
"m  c #4E4E4E",
"M  c gray31",
"N  c #505050",
"B  c #515151",
"V  c gray32",
"C  c #535353",
"Z  c gray33",
"A  c #555555",
"S  c #585858",
"D  c gray35",
"F  c #5A5A5A",
"G  c #5B5B5B",
"H  c #5D5D5D",
"J  c gray37",
"K  c #5F5F5F",
"L  c #606060",
"P  c #626262",
"I  c gray39",
"U  c #646464",
"Y  c #656565",
"T  c gray40",
"R  c #686868",
"E  c DimGray",
"W  c #6A6A6A",
"Q  c gray42",
"!  c #6C6C6C",
"~  c gray43",
"^  c #6F6F6F",
"/  c #717171",
"(  c #727272",
")  c gray45",
"_  c #747474",
"`  c gray46",
"'  c #767676",
"]  c #777777",
"[  c gray47",
"{  c #797979",
"}  c gray48",
"|  c #7B7B7B",
" . c #7C7C7C",
".. c gray49",
"X. c #7E7E7E",
"o. c #808080",
"O. c #818181",
"+. c gray51",
"@. c #838383",
"#. c gray52",
"$. c #868686",
"%. c gray53",
"&. c #888888",
"*. c #898989",
"=. c gray54",
"-. c #8B8B8B",
";. c gray55",
":. c #8D8D8D",
">. c #8E8E8E",
",. c gray56",
"<. c #909090",
"1. c gray57",
"2. c #929292",
"3. c #939393",
"4. c gray58",
"5. c #959595",
"6. c gray59",
"7. c #979797",
"8. c #989898",
"9. c gray60",
"0. c #9A9A9A",
"q. c #9B9B9B",
"w. c gray61",
"e. c gray62",
"r. c #A0A0A0",
"t. c gray63",
"y. c #A2A2A2",
"u. c gray64",
"i. c #A4A4A4",
"p. c #A5A5A5",
"a. c gray65",
"s. c #A7A7A7",
"d. c gray66",
"f. c #A9A9A9",
"g. c #AAAAAA",
"h. c #ACACAC",
"j. c gray68",
"k. c #AEAEAE",
"l. c #AFAFAF",
"z. c gray69",
"x. c #B1B1B1",
"c. c #B2B2B2",
"v. c #B4B4B4",
"b. c gray71",
"n. c #B6B6B6",
"m. c #B7B7B7",
"M. c #BBBBBB",
"N. c #BCBCBC",
"B. c gray74",
"V. c gray",
"C. c gray75",
"Z. c #C1C1C1",
"A. c gray76",
"S. c #C3C3C3",
"D. c gray77",
"F. c #C5C5C5",
"G. c gray78",
"H. c #C8C8C8",
"J. c gray79",
"K. c #CACACA",
"L. c #CBCBCB",
"P. c gray80",
"I. c #CDCDCD",
"U. c #CECECE",
"Y. c gray81",
"T. c gray82",
"R. c #D2D2D2",
"E. c LightGray",
"W. c gray83",
"Q. c #D5D5D5",
"!. c gray84",
"~. c #D7D7D7",
"^. c #D8D8D8",
"/. c gray85",
"(. c #DADADA",
"). c gray86",
"_. c gainsboro",
"`. c #DDDDDD",
"'. c gray87",
"]. c #DFDFDF",
"[. c gray88",
"{. c #E1E1E1",
"}. c #E2E2E2",
"|. c gray89",
" X c #E4E4E4",
".X c gray90",
"XX c #E6E6E6",
"oX c #E7E7E7",
"OX c gray91",
"+X c #E9E9E9",
"@X c #EAEAEA",
"#X c gray92",
"$X c #ECECEC",
"%X c gray93",
"&X c #EEEEEE",
"*X c #EFEFEF",
"=X c gray94",
"-X c #F1F1F1",
";X c gray95",
":X c #F3F3F3",
">X c #F4F4F4",
",X c gray96",
"<X c #F6F6F6",
"1X c gray97",
"2X c #F8F8F8",
"3X c #F9F9F9",
"4X c gray98",
"5X c #FBFBFB",
"6X c gray99",
"7X c #FDFDFD",
"8X c #FEFEFE",
"9X c white",
"0X c None",
/* pixels */
"0X0X0X0X0X0X0X0X0X0X0X0X0X0X0X0X0X0X0X0X0X0X0X0X0X0X0X. . . . . . . . . . 0X0X0X0X0X0X0X0X0X0X0X0X0X0X0X0X0X0X0X0X0X0X0X0X0X0X0X",
"0X0X0X0X0X0X0X0X0X0X0X0X0X0X0X0X0X0X0X0X0X0X. . . . . . . . . . . . . . . . . . . 0X0X0X0X0X0X0X0X0X0X0X0X0X0X0X0X0X0X0X0X0X0X0X",
"0X0X0X0X0X0X0X0X0X0X0X0X0X0X0X0X0X0X0X0X. . . . . . . . . . . . . . . . . . . . . . . . 0X0X0X0X0X0X0X0X0X0X0X0X0X0X0X0X0X0X0X0X",
"0X0X0X0X0X0X0X0X0X0X0X0X0X0X0X0X0X0X. . . . . . . . . . . . . . . . . . . . . . . . . . . . 0X0X0X0X0X0X0X0X0X0X0X0X0X0X0X0X0X0X",
"0X0X0X0X0X0X0X0X0X0X0X0X0X0X0X0X. . . . . . . . . . . . . . . . . . . . . . . . . . . . . . . . 0X0X0X0X0X0X0X0X0X0X0X0X0X0X0X0X",
"0X0X0X0X0X0X0X0X0X0X0X0X0X0X. . . . . . . . . . . . . . . . . . . . . . . . . . . . . . . . . . . . 0X0X0X0X0X0X0X0X0X0X0X0X0X0X",
"0X0X0X0X0X0X0X0X0X0X0X0X0X. . . . . . . . . . . . . . . . . . . . . . . . . . . . . . . . . . . . . . 0X0X0X0X0X0X0X0X0X0X0X0X0X",
"0X0X0X0X0X0X0X0X0X0X0X. . . . . . . . . . . . . . . . . . o.c . . . . . . . . . . . . . . . . . . . . . 0X0X0X0X0X0X0X0X0X0X0X0X",
"0X0X0X0X0X0X0X0X0X0X. . . . . . . . . . . . . . . . . = C.9X<XX.. . . c C.o.. . . . . . . . . . . . . . . . 0X0X0X0X0X0X0X0X0X0X",
"0X0X0X0X0X0X0X0X0X. . . . . . . . . . . . . . . . . c /.9X9X9X<XN . X.<X9X9X&XX.. . . . . . . . . . . . . . . 0X0X0X0X0X0X0X0X0X",
"0X0X0X0X0X0X0X0X. . . . . . . . . . . . . . . . . X.&X9X9X9X9X9XC.h.<X9X9X9X9X9Xu.. . . . . . . . . . . . . . . 0X0X0X0X0X0X0X0X",
"0X0X0X0X0X0X0X. . . . . . . . . . . . . . . . . 1 /.C.<X9X9X9X9X9X/.P ] <X9X9X9X9X9.. . . . . . . . . . . . . . 0X0X0X0X0X0X0X0X",
"0X0X0X0X0X0X0X. . . . . . . . . . . . . . . . . . . . 9.9X9X9X9X9X@ . . :.9X9X9X9X<Xc . . . . . . . . . . . . . . 0X0X0X0X0X0X0X",
"0X0X0X0X0X0X. . . . . . . . . . . . . . . . . . . . . h 9X9X9X9X9X. . . . !.9X9X9X9XC.. . . . . . . . . . . . . . . 0X0X0X0X0X0X",
"0X0X0X0X0X. . . . . . . . . . . . . . . . . . . . . . 8 9X9X9X9X<X. . . . :.9X9X9X9X&X. . . . . . . . . . . . . . . . 0X0X0X0X0X",
"0X0X0X0X0X. . . . . . . . . . . . . . . . . . . . . . 1 9X9X9X9X<X. . . . g 9X9X9X9X<X. . . . . . . . . . . . . . . . 0X0X0X0X0X",
"0X0X0X0X. . . . . . . . . . . . . . . . . . . . . . . 8 9X9X9X9X<X. . . . 8 9X9X9X9X<X. . . . . . . . . . . . . . . . . 0X0X0X0X",
"0X0X0X0X. . . . . . . . . . . . . . . . . . . . . . . 1 9X9X9X9X9X. . . . 8 9X9X9X9X<X. . . . . . . . . . . . . . . . . 0X0X0X0X",
"0X0X0X. . . . . . . . . . . . . . . . . . . . . . . . 8 9X9X9X9X<X. . . . y 9X9X9X9X<X. . . . . . . . . . . . . . . . . . 0X0X0X",
"0X0X0X. . . . . . . . . . . . . . . . . . . . . . . . 1 9X9X9X9X<X. . . . 8 9X9X9X9X<X. . . . . . . . . . . . . . . . . . 0X0X0X",
"0X0X. . . . . . . . . . . . . . . . . . . . . . . . . 8 9X9X9X9X9X. . . . 8 9X9X9X9X&X. . . . . . . . . . . . . . . . . . . 0X0X",
"0X0X. . . . N @ . . . . . . . . . . . . . . . . . . . 8 9X9X9X9X<X. . . . y 9X9X9X9X<X. . . . . . . . . . . . . - h . . . . 0X0X",
"0X. . . . . ] J.- . . . . . . . . . . . . . . . . . . 1 9X9X9X9X9X- . . . 8 9X9X9X9X&X. . . . . . . . . . . . 8 !.D . . . . 0X0X",
"0X. . . . . @ &X!.y . . . . . . . . . . . . . . . . . = F.&X9X9X9X9X<XXXJ.9.9X9X9X9XXX. . . . . . . . . . . c XXXX. . . . . . 0X",
"0X. . . . . . c.9XXXD . . . . . . . . . . . . . . . X.XX9X9X9X9X9X9X9X9X9X9X9X9X9XJ.y . . . . . . . . . . ^ &X9X9.. . . . . . 0X",
"0X. . . . . . g <X9X<Xo.. . . . . . . . . . . . - C.9X9X9X9X9X9X9X9X9X9X9X9X9X<X<.. . . . . . . . . . . <.<X9X<X1 . . . . . . 0X",
"0X. . . . . . . h.9X9X9Xh.. . . . . . . . . . 8 c.h.^ 1 9X9X9X9X<Xo.F.<X9X9X/.N . . . . . . . . . . - C.9X9X9X9.. . . . . . . 0X",
". . . . . . . . 1 XX9X9X9XJ.g . . . . . . . . - . . . 1 9X9X9X9X<X. . y c.c.@ . . . . . . . . . . D XX9X9X9X/.. . . . . . . . . ",
". . . . . . . . . ] 9X9X9X9X&X^ . . . . . . . . . . . g 9X9X9X9X<X. . . . . . . . . . . . . . . <.<X9X9X9X<XD . . . . . . . . . ",
". . . . . . . . . . u.9X9X9X9X<Xh.. . . . . . . . . . o.9X9X9X9X9Xh . . . . . . . . . . . . y F.9X9X9X9X9X:.. . . . . . . . . . ",
". . . . . . . . . . . h.9X9X9X9X9X!.N . . . . . . . 1 XX9X9X9X9X9X!.u.C.. . . . . . . . . o.&X9X9X9X9X9X9.. . . . . . . . . . . ",
". . . . . . . . . . . . 9.9X9X9X9X9X<X<.. . . . . . h.9X9X9X9X9X9X9X<X<.. . . . . . . 8 C.9X9X9X9X9X<XX.. . . . . . . . . . . . ",
". . . . . . . . . . . . . ] <X9X9X9X9X9XJ.g . . . . . D C.9X9X9X9X!.c . . . . . . . X.&X9X9X9X9X9X/.N . . . . . . . . . . . . . ",
". . . . . . . . . . . . . . h !.9X9X9X9X9X<X<.. . . . . . D XX9Xu.. . . . . . . y F.9X9X9X9X9X9Xc.= . . . . . . . . . . . . . . ",
". . . . . . . . . . . . . . . . u.9X9X9X9X9X9XJ.c . . . . . y P . . . . . . . <.&X9X9X9X9X9X&XX.. . . . . . . . . . . . . . . . ",
". . . . . . . . . . . . . . . . . D /.9X9X&XXX9X<Xh.1 . . . . . . . . . . ^ /.9X<X<X9X9X9Xc.8 . . . . . . . . . . . . . . . . . ",
". . . . . . . . . . . . . . . . . . . u.9X9X<XJ.XX9X&X<.. . . . . . . c F.9X9X!.XX9X9XXX^ . . . . . . . . . . . . . . . . . . . ",
"0X. . . . . . . . . . . . . . . . . . . h J.9X9X/.c.&X9XXXo.. . . y c.9X9XJ.F.9X9X<X9.. . . . . . . . . . . . . . . . . . . . 0X",
"0X. . . . . . . . . . . . . . . . . . . . . ] XX9X<XC.9.&X9X/.X.c XX9XJ.c.&X9X9XC.g . . . . . . . . . . . . . . . . . . . . . 0X",
"0X. . . . . . . . . . . . . . . . . . . . . . . <.&X9X<Xu.9.&X9X!.o.P /.9X9XJ.D . . . . . . . . . . . . . . . . . . . . . . . 0X",
"0X. . . . . . . . . . . . . . . . . . . . . . . . - u.&X9XXX:.9.XX9XJ.o.c.] . . . . . . . . . . . . . . . . . . . . . . . . . 0X",
"0X. . . . . . . . . . . . . . . . . . ^ ] . . . . . :.:.u.<X9X/.:.:./.9XJ.^ . . - !.!.c . . . . . . . . . . . . . . . . . . 0X0X",
"0X0X. . . . . . . . . . . . . . . . . <X9XF.= @ :.XXXXu.] <.u.&X9XXX<.X.J.9XJ.^ - c./.J.. . . . . . . . . . . . . . . . . . 0X0X",
"0X0X. . . . . . . . . . . . . . . . . /.9X<XC.XX!.o.X.!.9X<Xu.= <.XX9X&Xu.D c.<X!.o.&X&X. . . . . . . . . . . . . . . . . . 0X0X",
"0X0X0X. . . . . . . . . . . . . . . . u.9XJ.h.N <.XX9X&Xc.h . . . . X.J.9X<Xh.h <.F.9X!.. . . . . . . . . . . . . . . . . 0X0X0X",
"0X0X0X. . . . . . . . . . . . . . . D P 9XC.o.&X9X/.<.= . . . . . . . . N c.&X9Xc.N 9Xc.X.1 . . . . . . . . . . . . . . . 0X0X0X",
"0X0X0X0X. . . . . . . . . . . . D !.9XF./.XXh.C.P . . . . . . . . . . . . . - <.J.<.9X<.9X&Xu.= . . . . . . . . . . . . 0X0X0X0X",
"0X0X0X0X. . . . . . . . . h N c.9X9X9Xc.C.<Xu.^ . . . . . . . . . . . . . . . . h.c.9XP &X9X9X&X^ P . . . . . . . . . . 0X0X0X0X",
"0X0X0X0X0X. . . . . . . . J.C.J.&Xh.c . J.9X/.y . . . . . . . . . . . . . . . . h.F.9Xc - 9.!.9XX.9Xy . . . . . . . . 0X0X0X0X0X",
"0X0X0X0X0X. . . . . . . . 9.9Xo.. . . ] <X<XF.. . . . . . . . . . . . . . . . . N XX9XJ.- . . g J.XX= . . . . . . . . 0X0X0X0X0X",
"0X0X0X0X0X0X. . . . . . . . 8 c.J.C.!.9X9X!.g . . . . . . . . . . . . . . . . . . :.<X9X&XF.C.J.] = . . . . . . . . 0X0X0X0X0X0X",
"0X0X0X0X0X0X0X. . . . . . . . . y :.u.9.P . . . . . . . . . . . . . . . . . . . . . 1 :.h.9.^ . . . . . . . . . . 0X0X0X0X0X0X0X",
"0X0X0X0X0X0X0X0X. . . . . . . . . . . . . . . . . . . . . . . . . . . . . . . . . . . . . . . . . . . . . . . . 0X0X0X0X0X0X0X0X",
"0X0X0X0X0X0X0X0X. . . . . . . . . . . . . . . . . . . . . . . . . . . . . . . . . . . . . . . . . . . . . . . . 0X0X0X0X0X0X0X0X",
"0X0X0X0X0X0X0X0X0X. . . . . . . . . . . . . . . . . . . . . . . . . . . . . . . . . . . . . . . . . . . . . . 0X0X0X0X0X0X0X0X0X",
"0X0X0X0X0X0X0X0X0X0X. . . . . . . . . . . . . . . . . . . . . . . . . . . . . . . . . . . . . . . . . . . . 0X0X0X0X0X0X0X0X0X0X",
"0X0X0X0X0X0X0X0X0X0X0X0X. . . . . . . . . . . . . . . . . . . . . . . . . . . . . . . . . . . . . . . . 0X0X0X0X0X0X0X0X0X0X0X0X",
"0X0X0X0X0X0X0X0X0X0X0X0X0X. . . . . . . . . . . . . . . . . . . . . . . . . . . . . . . . . . . . . . 0X0X0X0X0X0X0X0X0X0X0X0X0X",
"0X0X0X0X0X0X0X0X0X0X0X0X0X0X. . . . . . . . . . . . . . . . . . . . . . . . . . . . . . . . . . . . 0X0X0X0X0X0X0X0X0X0X0X0X0X0X",
"0X0X0X0X0X0X0X0X0X0X0X0X0X0X0X0X. . . . . . . . . . . . . . . . . . . . . . . . . . . . . . . . 0X0X0X0X0X0X0X0X0X0X0X0X0X0X0X0X",
"0X0X0X0X0X0X0X0X0X0X0X0X0X0X0X0X0X0X. . . . . . . . . . . . . . . . . . . . . . . . . . . . 0X0X0X0X0X0X0X0X0X0X0X0X0X0X0X0X0X0X",
"0X0X0X0X0X0X0X0X0X0X0X0X0X0X0X0X0X0X0X0X. . . . . . . . . . . . . . . . . . . . . . . . 0X0X0X0X0X0X0X0X0X0X0X0X0X0X0X0X0X0X0X0X",
"0X0X0X0X0X0X0X0X0X0X0X0X0X0X0X0X0X0X0X0X0X0X0X. . . . . . . . . . . . . . . . . . 0X0X0X0X0X0X0X0X0X0X0X0X0X0X0X0X0X0X0X0X0X0X0X",
"0X0X0X0X0X0X0X0X0X0X0X0X0X0X0X0X0X0X0X0X0X0X0X0X0X0X0X. . . . . . . . . . 0X0X0X0X0X0X0X0X0X0X0X0X0X0X0X0X0X0X0X0X0X0X0X0X0X0X0X"
};
