<?xml version="1.0" standalone="no"?>
<!DOCTYPE svg PUBLIC "-//W3C//DTD SVG 20010904//EN"
 "http://www.w3.org/TR/2001/REC-SVG-20010904/DTD/svg10.dtd">
<svg version="1.0" xmlns="http://www.w3.org/2000/svg"
 width="640.000000pt" height="640.000000pt" viewBox="0 0 640.000000 640.000000"
 preserveAspectRatio="xMidYMid meet">

<g transform="translate(0.000000,640.000000) scale(0.100000,-0.100000)"
fill="#000000" stroke="none">
<path d="M2980 6394 c-139 -12 -322 -39 -443 -64 -1235 -261 -2207 -1232
-2466 -2467 -53 -251 -65 -373 -65 -663 0 -290 12 -412 65 -663 128 -611 421
-1150 869 -1597 511 -512 1128 -815 1865 -916 183 -25 607 -25 790 0 520 72
957 234 1375 512 182 120 326 239 490 404 448 447 741 986 869 1597 53 251 65
373 65 663 0 290 -12 412 -65 663 -221 1052 -961 1925 -1964 2316 -251 98
-494 160 -765 196 -119 16 -518 28 -620 19z m56 -780 c103 -61 180 -151 220
-254 9 -25 20 -49 25 -54 4 -4 88 53 187 128 l181 137 90 -34 c244 -92 431
-267 527 -494 l29 -68 3 -466 3 -467 -296 -210 -296 -210 -82 43 c-89 47 -160
76 -262 105 l-65 19 0 -156 c0 -176 9 -220 56 -269 39 -42 75 -44 144 -9 l49
25 27 -36 c23 -30 25 -37 13 -48 -8 -7 -117 -86 -243 -175 l-229 -161 -51 43
c-108 91 -204 145 -354 197 l-92 32 57 62 c31 33 70 90 87 126 28 61 30 73 34
212 3 81 2 154 -1 161 -5 12 -17 12 -89 0 -69 -12 -244 -65 -323 -98 -31 -13
14 34 105 109 135 113 263 186 414 237 87 30 75 35 -46 20 l-58 -7 0 501 c0
543 -1 557 -55 635 -14 20 -41 45 -58 55 -33 17 -33 17 -88 -13 l-55 -31 -28
36 -29 36 24 18 c13 9 121 94 239 187 118 94 218 171 221 171 3 1 32 -15 65
-35z m-1941 -1750 c494 -397 1131 -842 1516 -1057 235 -131 675 -360 1085
-565 406 -203 467 -232 489 -232 14 0 55 88 55 120 0 12 -5 30 -11 41 -10 20
-11 19 -30 -5 -22 -28 -66 -35 -87 -14 -20 20 -14 72 11 96 70 66 201 14 244
-96 28 -73 22 -172 -20 -348 -21 -83 -37 -176 -37 -206 0 -145 129 -251 305
-250 150 1 295 116 295 235 0 33 3 37 26 37 37 0 84 -50 84 -90 0 -71 -58
-144 -110 -138 -15 1 -43 -10 -73 -31 -178 -122 -432 -145 -600 -54 -65 36
-131 111 -156 178 -21 55 -46 184 -37 192 2 2 18 -2 34 -11 27 -14 30 -20 34
-78 4 -55 41 -168 52 -157 3 2 0 27 -5 54 -5 28 -7 84 -3 125 6 70 45 276 58
311 6 12 -2 15 -43 16 -36 0 -89 17 -197 61 -487 196 -991 437 -1724 823 -74
39 -130 66 -125 61 18 -18 396 -256 546 -344 317 -186 562 -310 1099 -557 176
-81 294 -141 308 -157 16 -18 22 -38 22 -70 0 -24 -2 -44 -4 -44 -27 0 -684
277 -946 399 -818 382 -1659 906 -2013 1255 -165 162 -360 485 -443 731 -54
163 -54 163 109 18 79 -71 210 -182 292 -249z m4630 296 c-53 -206 -229 -524
-398 -721 -204 -238 -861 -683 -1547 -1047 l-115 -61 -94 50 -93 51 53 30
c227 128 619 365 619 374 0 2 -164 -80 -363 -181 -200 -102 -370 -185 -377
-185 -7 0 -42 16 -78 36 l-64 36 58 33 c446 246 564 313 707 402 593 369 1283
875 1637 1201 36 33 66 56 68 52 2 -5 -4 -36 -13 -70z m-2946 -1992 c-79 -35
-413 -176 -474 -199 -39 -15 -82 -23 -123 -24 -51 0 -61 -3 -56 -15 44 -100
79 -304 70 -410 l-6 -65 19 40 c11 21 23 65 26 96 6 53 9 59 37 68 49 17 51
15 45 -47 -17 -164 -108 -280 -262 -332 -163 -56 -361 -29 -514 70 -43 28 -73
40 -97 40 -27 0 -43 8 -64 30 -35 38 -57 112 -42 145 15 31 55 57 84 53 19 -2
23 -10 26 -43 7 -102 114 -200 242 -223 146 -27 317 59 349 174 25 89 13 153
-80 427 -46 133 -59 185 -54 207 11 51 70 77 134 60 46 -12 152 -88 177 -126
18 -26 18 -27 -17 -55 l-34 -29 76 26 c42 15 163 68 270 119 l194 92 59 -30
59 -29 -44 -20z m230 -69 l86 -41 -45 -22 c-66 -34 -471 -205 -647 -274 l-153
-60 0 57 c0 47 4 61 23 78 12 12 99 55 192 96 94 41 231 105 305 140 74 36
139 66 144 66 4 1 47 -17 95 -40z m-1066 -311 c10 -21 21 -61 24 -91 l5 -53
-78 -36 c-108 -51 -308 -125 -323 -120 -14 5 -48 69 -51 97 -4 38 0 45 43 72
75 47 331 174 347 171 8 -2 23 -20 33 -40z m2613 -2 c51 -24 136 -70 189 -100
80 -48 95 -61 95 -82 0 -33 -23 -85 -47 -107 -20 -17 -24 -16 -129 21 -60 22
-146 58 -191 81 -79 39 -83 43 -83 74 0 30 25 129 37 150 9 14 37 6 129 -37z"/>
<path d="M3462 5295 c-17 -8 -61 -35 -97 -60 l-65 -47 0 -544 0 -544 68 0 c77
0 222 -22 334 -50 42 -11 81 -20 88 -20 8 0 10 118 8 443 l-3 442 -28 69 c-51
128 -159 276 -228 311 -34 18 -35 18 -77 0z"/>
</g>
</svg>
