/* XPM */
static char *piratecash16[] = {
/* columns rows colors chars-per-pixel */
"16 16 65 1 ",
"  c black",
". c #010101",
"X c gray1",
"o c #070707",
"O c #202020",
"+ c #252525",
"@ c gray16",
"# c #353535",
"$ c #373737",
"% c #393939",
"& c #3F3F3F",
"* c #505050",
"= c gray36",
"- c gray38",
"; c #626262",
": c gray39",
"> c gray40",
", c #676767",
"< c gray42",
"1 c #727272",
"2 c gray48",
"3 c #7C7C7C",
"4 c gray49",
"5 c gray52",
"6 c gray53",
"7 c #929292",
"8 c #939393",
"9 c #989898",
"0 c gray60",
"q c #9A9A9A",
"w c gray61",
"e c #A0A0A0",
"r c #A2A2A2",
"t c gray64",
"y c #A4A4A4",
"u c #A5A5A5",
"i c gray65",
"p c #A7A7A7",
"a c #AAAAAA",
"s c gray67",
"d c #AFAFAF",
"f c #BCBCBC",
"g c gray",
"h c gray76",
"j c gray77",
"k c #C8C8C8",
"l c #CDCDCD",
"z c #CECECE",
"x c #D0D0D0",
"c c LightGray",
"v c gray85",
"b c #DADADA",
"n c gainsboro",
"m c #DDDDDD",
"M c #DFDFDF",
"N c gray88",
"B c #E1E1E1",
"V c gray90",
"C c #E6E6E6",
"Z c gray92",
"A c gray96",
"S c #F6F6F6",
"D c gray98",
"F c white",
"G c None",
/* pixels */
"GGGGG......GGGGG",
"GGG..........GGG",
"GG....qAav-...GG",
"G.....OF4cc....G",
"G......F4hV....G",
".-%....FqlV..%=.",
".$v-..8Fvv-.<v@.",
"..6Aq.<Fh..iA6..",
"...1Zc*i-<vZ-...",
"....@dviiVa.....",
"....-8ihlqi.....",
"G..%ihq$%qga...G",
"G..4qi....a84..G",
"GG............GG",
"GGG..........GGG",
"GGGGG......GGGGG"
};
