/* XPM */
static char *piratecash32[] = {
/* columns rows colors chars-per-pixel */
"32 32 137 2 ",
"   c black",
".  c #010101",
"X  c #020202",
"o  c gray2",
"O  c #060606",
"+  c #070707",
"@  c gray4",
"#  c #0B0B0B",
"$  c gray6",
"%  c #101010",
"&  c #151515",
"*  c #181818",
"=  c #1E1E1E",
"-  c #202020",
";  c #232323",
":  c gray14",
">  c #2A2A2A",
",  c gray19",
"<  c #313131",
"1  c #343434",
"2  c gray22",
"3  c #393939",
"4  c #3A3A3A",
"5  c gray23",
"6  c #3C3C3C",
"7  c #414141",
"8  c #444444",
"9  c gray27",
"0  c #464646",
"q  c gray28",
"w  c #484848",
"e  c gray29",
"r  c #4C4C4C",
"t  c #4E4E4E",
"y  c gray31",
"u  c #515151",
"i  c gray32",
"p  c #5B5B5B",
"a  c #606060",
"s  c gray38",
"d  c #626262",
"f  c gray39",
"g  c #686868",
"h  c DimGray",
"j  c gray42",
"k  c #6C6C6C",
"l  c #767676",
"z  c #777777",
"x  c #7B7B7B",
"c  c #7C7C7C",
"v  c gray50",
"b  c #808080",
"n  c #818181",
"m  c gray51",
"M  c gray52",
"N  c #888888",
"B  c gray54",
"V  c #8B8B8B",
"C  c #909090",
"Z  c gray58",
"A  c #979797",
"S  c #989898",
"D  c #9A9A9A",
"F  c #9B9B9B",
"G  c gray62",
"H  c #9F9F9F",
"J  c #A0A0A0",
"K  c gray63",
"L  c #A4A4A4",
"P  c gray65",
"I  c #A7A7A7",
"U  c gray66",
"Y  c #A9A9A9",
"T  c #AAAAAA",
"R  c gray67",
"E  c #ACACAC",
"W  c gray68",
"Q  c #AEAEAE",
"!  c gray69",
"~  c #B1B1B1",
"^  c #B2B2B2",
"/  c gray71",
"(  c #B7B7B7",
")  c gray72",
"_  c gray73",
"`  c #BBBBBB",
"'  c #BCBCBC",
"]  c gray74",
"[  c gray",
"{  c #C0C0C0",
"}  c #C1C1C1",
"|  c gray76",
" . c #C3C3C3",
".. c gray77",
"X. c #C5C5C5",
"o. c #C6C6C6",
"O. c gray78",
"+. c #C8C8C8",
"@. c #CACACA",
"#. c #CBCBCB",
"$. c gray82",
"%. c #D2D2D2",
"&. c LightGray",
"*. c #D5D5D5",
"=. c gray84",
"-. c #D8D8D8",
";. c gray85",
":. c #DADADA",
">. c gray86",
",. c #DDDDDD",
"<. c gray87",
"1. c #DFDFDF",
"2. c gray88",
"3. c #E1E1E1",
"4. c #E2E2E2",
"5. c gray89",
"6. c #E4E4E4",
"7. c gray90",
"8. c #E7E7E7",
"9. c gray91",
"0. c #EAEAEA",
"q. c gray92",
"w. c #ECECEC",
"e. c #EEEEEE",
"r. c #EFEFEF",
"t. c gray94",
"y. c #F1F1F1",
"u. c #F4F4F4",
"i. c #F6F6F6",
"p. c gray97",
"a. c #F8F8F8",
"s. c #F9F9F9",
"d. c #FBFBFB",
"f. c gray99",
"g. c #FDFDFD",
"h. c white",
"j. c None",
/* pixels */
"j.j.j.j.j.j.j.j.j.j.j.j.. . . . . . . . j.j.j.j.j.j.j.j.j.j.j.j.",
"j.j.j.j.j.j.j.j.j.. . . . . . . . . . . . . . j.j.j.j.j.j.j.j.j.",
"j.j.j.j.j.j.j.. . . . . . . . . . . . . . . . . . j.j.j.j.j.j.j.",
"j.j.j.j.j.j.. . . . . . . . r ; . . . . . . . . . . j.j.j.j.j.j.",
"j.j.j.j.j.. . . . . . . . v i.q.; V 6.V . . . . . . . j.j.j.j.j.",
"j.j.j.j.. . . . . . . . V q.a.a.=.+.a.a.T . . . . . . . j.j.j.j.",
"j.j.j.. . . . . . . . . . i a.a.T . [ a.a.z . . . . . . . j.j.j.",
"j.j.. . . . . . . . . . . . a.a.T . r a.a.T . . . . . . . j.j.j.",
"j.j.. . . . . . . . . . . # a.a.T . & a.a.T . . . . . . . . j.j.",
"j.. . . . . . . . . . . . . a.a.T . # a.a.T . . . . . . . . . j.",
"j.. . & . . . . . . . . . # a.a.T . # a.a.! . . . . . . * . . j.",
"j.. . T z . . . . . . . . . i.a.1.T V a.a.T . . . . . n I . . j.",
". . . f a.Z . . . . . . f 1.a.a.a.a.a.a.[ # . . . . H i.i . . . ",
". . . . +.a.[ # . . . ; v < a.a.[ I 6.n . . . . < +.a.[ . . . . ",
". . . . 5 q.a.6.p . . . . 9 a.a.! . . . . . . z q.a.6.< . . . . ",
". . . . . f q.a.i.Z . . . | a.a.i.[ . . . . ! a.a.6.r . . . . . ",
". . . . . . < =.a.a.=.r . ; T a.[ ; . . h 6.a.a.| > . . . . . . ",
". . . . . . . . I i.i.q.I . . 5 . . < [ a.a.i.V . . . . . . . . ",
". . . . . . . . . i =.q.1.1.V . # I 6.6.i.| 5 . . . . . . . . . ",
". . . . . . . . . . . n 6.=.+.1.! +.q.=.h . . . . . . . . . . . ",
"j.. . . . . . . . 5 5 . . ! 6.+.+.=.H . z z . . . . . . . . . j.",
"j.. . . . . . . . T q.H ! [ +.T 1.| [ [ H 1.. . . . . . . . . j.",
"j.. . . . . . . . f 6.I =.| f . . n +.+.Z 6.9 . . . . . . . . j.",
"j.j.. . . . & h =.6.1.I < . . . . . . r T +.i.| r . . . . . j.j.",
"j.j.. . . . n +.Z 9 q.H . . . . . . . . ! 1.r T =.. . . . j.j.j.",
"j.j.j.. . . . f I +.! & . . . . . . . . 9 | | H 5 . . . . j.j.j.",
"j.j.j.j.. . . . . . . . . . . . . . . . . . . . . . . . j.j.j.j.",
"j.j.j.j.j.. . . . . . . . . . . . . . . . . . . . . . j.j.j.j.j.",
"j.j.j.j.j.j.. . . . . . . . . . . . . . . . . . . . j.j.j.j.j.j.",
"j.j.j.j.j.j.j.. . . . . . . . . . . . . . . . . j.j.j.j.j.j.j.j.",
"j.j.j.j.j.j.j.j.j.. . . . . . . . . . . . . . j.j.j.j.j.j.j.j.j.",
"j.j.j.j.j.j.j.j.j.j.j.j.. . . . . . . . j.j.j.j.j.j.j.j.j.j.j.j."
};
