<?xml version="1.0" encoding="utf-8"?>
<!-- Generator: Adobe Illustrator 24.0.1, SVG Export Plug-In . SVG Version: 6.00 Build 0)  -->
<svg version="1.1" id="Layer_1" xmlns="http://www.w3.org/2000/svg" xmlns:xlink="http://www.w3.org/1999/xlink" x="0px" y="0px"
	 viewBox="0 0 132.35 104.42" style="enable-background:new 0 0 132.35 104.42;" xml:space="preserve">
<style type="text/css">
	.st0{fill:#010101;}
	.st1{fill:#FFFFFF;}
</style>
<g>
	<g>
		<g>
			<g>
				<path class="st0" d="M82.06,93.49c0,0.3-0.06,0.83-0.37,1.09l0.59,0.77c0.94-1.08,2.57-2.85,2.84-3.29
					c0.45-0.67,0.7-1.42,0.7-2.26v-7.7l1.35-1.08c1.68,0.86,2.64,1.41,4.58,1.87l2.98-3.07c-0.87-0.01-3.47-0.49-5.81-1.87
					l-6.87,5.29C82.06,83.24,82.06,93.11,82.06,93.49z"/>
				<path class="st0" d="M93.03,95.74c-2.4,1.72-6.51,1.53-8.16,0.69c-2.87-1.25-4-3.15-4.24-3.5l-0.46-0.8
					c-2.35-4.03-0.64-11.07,5.5-13.27c-4.18,0.26-9.05,3.74-9.66,9.64c-0.4,4.17,1.76,9.27,7.22,11c2.69,0.79,6.51,0.6,10.16-3.06
					C93.39,96.45,93.17,96,93.03,95.74z"/>
			</g>
			<path class="st0" d="M27.29,83.08l2.36,2.13l-0.94,1.23v9.09c0,0.82,0.37,1.14,0.65,1.27l0.74-0.61l0.55,0.54l-2.88,2.46
				c-0.52,0-0.95-0.17-1.29-0.52c-0.5-0.5-0.84-1.46-0.84-2V86.38c0-0.51-0.47-0.96-0.74-1.29L27.29,83.08z"/>
			<path class="st0" d="M34.24,82.89c1.01,0.3,2.13,2.03,2.13,2.88l3.14-2.81l2.22,2.61l-2.22,2.01l-1.79-1.92l-1.34,1.17v8.28
				l1.51,1.19l1.24-0.93l0.58,0.55l-3.75,3.2c-1.1-1.19-2.32-2.06-3.65-2.62c0.39-0.3,1.13-1.07,1.13-2.39c0,0,0-6.27,0-7.11
				s-0.68-1.38-0.87-1.49l-0.74,0.39l-0.26-0.45L34.24,82.89z"/>
			<path class="st0" d="M59.65,78.75v4.82h3.33l-0.43,1.58h-2.97v10.15l1.47,1.22l1.16-0.87l0.51,0.59l-3.46,3.01
				c-1.15-1.22-2.43-2-3.69-2.59c0.28-0.39,0.94-1.44,0.94-2.42v-8.96l-0.99-0.02l-0.02-0.7L59.65,78.75z"/>
			<path class="st0" d="M69.29,82.89l4.2,4.33l-5.56,4.88v3.2l2.42,1.17l2.21-1.39l0.51,0.64l-4.33,3.4c-0.87,0-2.05-1.02-2.97-1.43
				c-0.93-0.41-1.58-0.4-1.91-0.45c0.71-0.71,1.07-1.55,1.07-2.52V85.7c0.75-0.28,1.52-0.68,2.3-1.2
				C67.87,84.08,69.29,82.89,69.29,82.89z M67.93,85.77v5.08l2.69-2.26L67.93,85.77z"/>
			<path class="st0" d="M127.57,82.89l-4.39,3.68v-6.33c0.06-1.38,1.13-2.86,1.74-3.4c-1.21,0-2.97,0.86-3.75,2.07
				c-0.6-0.86-1.36-1.36-2.55-1.36c0.85,0.46,1.42,1.69,1.42,2.34v15.84c0,0.4-0.5,0.82-1,1.2c0.93,0.53,1.76,1.29,2.52,2.2
				l2.55-2.2l-0.93-1.11v-8.15l2.5-2.06c0.6,0.17,1.11,0.67,1.11,1.33c0,0.66,0,10.5,0,10.5c-0.71,2.18-2.57,3.76-5.56,4.75
				l0.39,0.68c1.85-0.39,4.16-1.1,5.78-2.15c1.62-1.05,2.63-2.54,3.04-4.48v-9.96C130.09,85,129,83.59,127.57,82.89z"/>
			
				<rect x="26.02" y="78.05" transform="matrix(0.7071 0.7071 -0.7071 0.7071 64.2442 3.941)" class="st0" width="2.69" height="2.95"/>
			<path class="st0" d="M114.74,86.51c2.05-0.56,2.9-1.81,3.16-2.94c0.11-0.71,0.11-1.21-0.01-1.7c-0.02-0.17-0.41-1.18-1.24-0.99
				c-0.34,0.08-0.63,0.73-0.29,1.16c0,0.02,0.52,0.51,0.65,0.65c0.13,0.13,0.11,0.39,0,0.61c-0.11,0.23-1.37,1.32-2.75,0.84
				l-3.33-1.2c0,0-1.55,1.85-3.75,2.75v5.53l3.65,2.24l1.72-2.22l1.93,1.27v4.2c-0.43-0.26-1.8-1.21-3.38-1.37
				c-2.05-0.2-2.97,0.58-2.97,0.58l-1.87,2.74l0.45,0.32c0.37-0.24,1.62-0.87,3.17-0.87c1.55,0,2.87,0.87,3.1,1
				c0.02,0,1.97-1.55,4.27-2.46v-6.21l-2.09-1.3c0,0-0.93-0.56-1.59-0.97l-1.84,2.39l-1.69-0.99V85.9
				C110.81,86.18,112.68,86.87,114.74,86.51z"/>
			<path class="st0" d="M53.69,96.13l-0.58,0.42c-0.21,0.05-0.79-0.34-0.79-1.08c0-0.35,0.06-8.26,0.06-8.26
				c0-0.67,1.11-2.31,1.2-2.46c-0.49,0.07-0.95,0.33-1.32,0.68c0,0-2.67-0.63-5.19-2.47c0,0-1.34,1.25-2.14,1.73
				c-0.8,0.49-1.43,0.88-2.25,1.03v9.44h0.01c0.04,0.98,0.28,1.76,0.58,2.24c0.48,0.77,0.94,1.29,1.71,1.73l4.27-3.69
				c0,0-0.06,1.08,0.39,2.1c0.65,1.58,1.75,1.58,1.75,1.58l2.81-2.46L53.69,96.13z M49.31,94.41l-2.74,2.25
				c-0.44-0.18-0.94-1.11-0.94-2.04l0.01-9.21l3.67,1.95V94.41z"/>
			<path class="st0" d="M105.22,96.13l-0.58,0.42c-0.21,0.05-0.79-0.34-0.79-1.08c0-0.35,0.06-8.26,0.06-8.26
				c0-0.67,1.11-2.31,1.2-2.46c-0.49,0.07-0.95,0.33-1.32,0.68c0,0-2.67-0.63-5.19-2.47c0,0-1.34,1.25-2.14,1.73
				c-0.8,0.49-1.43,0.88-2.25,1.03v9.44h0.01c0.04,0.98,0.28,1.76,0.58,2.24c0.48,0.77,0.94,1.29,1.71,1.73l4.27-3.69
				c0,0-0.06,1.08,0.39,2.1c0.65,1.58,1.75,1.58,1.75,1.58l2.81-2.46L105.22,96.13z M100.85,94.41l-2.74,2.25
				c-0.44-0.18-0.94-1.11-0.94-2.04l0.01-9.21l3.67,1.95V94.41z"/>
			<path class="st0" d="M20.38,80.61c-0.71-0.8-1.15-1.18-2.98-2.49h-0.26l-4.17,3.34c0-1.15-1.52-4.68-5.63-3.78
				c-0.93,0.24-1.9,0.72-2.91,1.46c0,0.02-0.16,0.65-0.16,0.65c0.8-0.37,1.37-0.52,2.36-0.52c1.25,0,2.59,1.15,2.59,2.98v1.9
				l-2.28,1.63c2.53,1.27,2.28,5.11,2.28,6.67v2.08c-3.28,0.91-5.56,3.3-6.21,4.08c0,0.02,0,0.45,0,0.45
				c1.56-0.84,4.12-1.75,6.21-1.62v4.86h3.75V82.58l2.14-1.56c0,0,0.09-0.35,1.45,0.97c1.42,1.36,2.2,2.92,2.2,3.7
				c0,0.77,0,10.8,0,10.8c-2.16-1.29-3.36-2.02-6.03-2.27l0.03,3.23c1.95,0.13,3.03,0.81,4.81,1.92l4.82-4.01V85.01
				C22.23,83.39,21.56,81.92,20.38,80.61z"/>
		</g>
	</g>
	<circle class="st0" cx="66.72" cy="35.37" r="33.49"/>
	<g>
		<path class="st1" d="M78.21,17.12c-0.88-3.17-3.14-5.45-6.81-6.55l-3.85,2.91c-0.51-1.73-1.35-2.85-3.22-3.76l-0.09,0.07l0,0
			l-4.97,3.89l0,0l0,0l0.58,0.74l1.17-0.63c0.84,0.26,1.34,1.25,1.48,2.1v10.56c0.83-0.13,1.18-0.16,2.09-0.17
			c-0.59,0.14-1.03,0.29-1.44,0.45c-1.94,0.74-3.68,1.95-5.25,3.6c1.33-0.64,2.91-1.11,4.6-1.32v2.6c0,1.28-0.69,2.43-1.93,3.4
			c1.59,0.46,3.72,1.26,5.24,2.89l-0.01,0.01l0.01-0.01c0,0,0.01,0,0.01,0.01l3.99-2.83v0l1.14-0.81l-0.55-0.77l-1.09,0.5
			c-0.78,0.27-1.59-0.77-1.59-2.1v-2.68c1.47,0.32,2.93,0.88,4.31,1.75l2.61-1.86l3.54-2.51L78.21,17.12z M67.74,25.91V14.57
			l1.08-0.76c0.89-0.63,1.28-0.59,1.72-0.21c1.3,1.13,2.44,3.18,2.44,4.64v8.51C71.11,26.18,69.37,25.91,67.74,25.91z"/>
		<g>
			<g>
				<path class="st1" d="M56.13,53.66c0.15-1.13,0.24-2.92-0.79-5.35c0.36,0.38,1.35,0.18,1.64,0.09c1.88-0.73,3.86-1.57,5.81-2.45
					l-1.27-0.62c-2.26,1.14-4.24,2.07-5.26,2.39c-0.2,0.06-0.36,0.1-0.48,0.12c0.41-0.27,0.64-0.41,0.87-0.61
					c-0.57-0.8-1.84-1.86-2.73-1.66c-1.06,0.3-0.9,1.02-0.26,2.65c0.21,0.54,0.87,2.38,1,3.38c0.12,1.34-0.23,2.36-1.93,2.98
					c-1.46,0.49-2.81,0.1-3.83-0.99c-0.58-0.69-0.61-1.42-0.5-1.6c-0.31-0.21-0.79,0-1.02,0.22c-0.28,0.28-0.27,0.8,0.02,1.42
					c0.42,0.73,0.8,0.82,1.24,0.61c1.63,1.31,3.21,1.62,4.94,1.5c2.8-0.39,3.83-1.97,3.99-4.45l-0.9,0.32
					C56.65,52.24,56.57,53.07,56.13,53.66z"/>
				<path class="st1" d="M49.79,53.33c1.53-0.6,2.44-0.85,3.88-1.57c0.16-0.08,0.25-0.25,0.23-0.43c-0.05-0.37-0.22-0.95-0.36-1.33
					c-0.08-0.22-0.34-0.33-0.56-0.23c-1.56,0.71-2.34,1.15-3.69,1.91c-0.13,0.07-0.22,0.21-0.21,0.36
					C49.09,52.52,49.57,53.4,49.79,53.33z"/>
				<path class="st1" d="M73.11,39.11c-1.2,0.68-3.34,1.87-5.72,3.15l1.54,0.8c4.78-2.34,8.39-4.3,8.39-4.3s-2.75,1.93-7.72,4.65
					l2,1.04c9.91-5.11,15.2-9.46,16.37-10.53c2.47-2.22,5.1-7.09,5.36-9.51C87.51,30.06,76.31,37.3,73.11,39.11z"/>
				<path class="st1" d="M56.73,50.2l0.03,0.85c3.22-1.23,6.18-2.48,8.88-3.71l-1.88-0.91c-1.95,0.95-4.08,1.94-6.39,2.93
					C56.96,49.5,56.74,49.86,56.73,50.2z"/>
			</g>
			<g>
				<path class="st1" d="M59.88,39.11c3.45,1.96,13.42,7.11,16.95,8.7c0.15,0.07,0.33,0,0.41-0.15c0.3-0.61,0.59-1.32,0.1-1.73
					c-0.08,0.52-0.85,0.79-1.15,0.28c-0.27-0.53,0.15-0.91,0.39-1.04c0.23-0.13,0.53-0.2,0.98-0.1c1.19,0.34,1.92,1.56,1.43,3.77
					c-0.09,0.41-0.63,2.46-0.66,2.95c-0.07,1.25,0.32,2.2,1.94,2.79c1.46,0.49,2.81,0.1,3.83-0.99c0.58-0.69,0.61-1.42,0.5-1.6
					c0.31-0.21,0.71,0.04,0.93,0.26c0.28,0.28,0.35,0.76,0.06,1.38c-0.42,0.73-0.99,0.82-1.24,0.61c-1.63,1.31-3.21,1.62-4.94,1.5
					c-2.8-0.39-3.72-1.98-3.88-4.47l0.67,0.28c-0.04,0.93,0.19,1.84,0.73,2.52c-0.37-1-0.22-2.02-0.12-2.96
					c0.18-1.09,0.53-2.42,0.6-2.58c-0.26,0.14-0.86,0.11-1.38-0.09C68.05,45.33,60.69,41.4,55,38.4c8.57,5.71,12.04,7.12,20.4,10.98
					c0.46,0.2,0.7,0.44,0.71,0.77l-0.01,0.82c-19.65-7.5-28.95-15.44-30.62-16.96c-2.47-2.22-5.13-7.19-5.39-9.61
					C45.93,30.06,56.69,37.3,59.88,39.11z"/>
				<path class="st1" d="M83.84,51.78c-1.45-0.88-2.31-1.35-3.87-2.05c-0.18-0.08-0.39,0-0.47,0.18c-0.16,0.41-0.34,1.13-0.37,1.53
					c-0.01,0.13,0.07,0.25,0.18,0.31c1.33,0.75,2.15,1.05,3.76,1.57c0.06,0.02,0.14,0.04,0.2,0.01
					C83.66,53.12,84.11,51.9,83.84,51.78z"/>
			</g>
		</g>
	</g>
</g>
</svg>
