<svg width="206" height="206" viewBox="0 0 206 206" fill="none" xmlns="http://www.w3.org/2000/svg">
<g clip-path="url(#clip0_8941_82164)">
<path fill-rule="evenodd" clip-rule="evenodd" d="M206 64.1568C206 61.7113 206.001 59.2655 205.986 56.8198C205.974 54.7596 205.95 52.6998 205.894 50.6406C205.773 46.1523 205.508 41.6256 204.71 37.1874C203.9 32.6851 202.579 28.4949 200.495 24.4042C198.447 20.3834 195.772 16.7042 192.58 13.5145C189.389 10.3247 185.709 7.65122 181.686 5.60448C177.591 3.52074 173.397 2.19924 168.889 1.38999C164.451 0.592998 159.923 0.328749 155.435 0.207499C153.374 0.151749 151.313 0.12825 149.252 0.1155C146.805 0.1005 144.358 0.10175 141.911 0.10175L113.499 0H92.2493L64.3403 0.10175C61.8885 0.10175 59.4368 0.1005 56.9851 0.1155C54.9196 0.12825 52.8551 0.151749 50.7904 0.207499C46.2917 0.328749 41.7534 0.593248 37.3042 1.39124C32.791 2.20024 28.59 3.52124 24.4896 5.60348C20.4588 7.65047 16.7706 10.3242 13.5726 13.5145C10.3752 16.7039 7.69494 20.3824 5.64321 24.4024C3.55422 28.4951 2.22973 32.6879 1.41824 37.1926C0.619245 41.6291 0.354497 46.1543 0.232748 50.6406C0.177249 52.7001 0.153249 54.7598 0.140749 56.8198C0.125749 59.2658 0 62.304 0 64.7498L0.000749994 92.2722L0 113.75L0.126999 141.857C0.126999 144.306 0.125999 146.755 0.140749 149.204C0.153249 151.267 0.177249 153.329 0.232998 155.391C0.354497 159.885 0.619745 164.419 1.41949 168.863C2.23073 173.371 3.55497 177.567 5.64221 181.663C7.69419 185.69 10.3749 189.374 13.5726 192.568C16.7704 195.762 20.4576 198.439 24.4876 200.489C28.5905 202.576 32.7935 203.899 37.3095 204.709C41.7567 205.507 46.2934 205.772 50.7904 205.893C52.8551 205.949 54.9198 205.973 56.9853 205.985C59.4371 206 61.8885 205.999 64.3403 205.999L92.5016 206H113.804L141.911 205.999C144.358 205.999 146.805 206 149.252 205.985C151.313 205.973 153.374 205.949 155.435 205.893C159.925 205.772 164.454 205.507 168.895 204.708C173.399 203.898 177.592 202.575 181.685 200.49C185.708 198.44 189.389 195.763 192.58 192.568C195.772 189.374 198.447 185.691 200.495 181.665C202.579 177.567 203.901 173.369 204.711 168.858C205.508 164.415 205.773 159.884 205.894 155.391C205.95 153.329 205.974 151.266 205.986 149.204C206.001 146.755 206 144.306 206 141.857C206 141.857 205.998 114.246 205.998 113.75V92.2497C205.998 91.8832 206 64.1568 206 64.1568Z" fill="black"/><g transform="translate(0, -6)">
<path d="M134.901 55.4271C132.175 45.6917 125.555 39.0717 114.262 35.567L102.58 44.5235C101.022 39.4611 98.296 35.9564 92.8442 33.2305L92.4548 33.6199L77.2677 45.3023L79.2147 47.6388L82.7195 45.6917C85.4454 46.4705 86.6136 49.5859 87.3924 51.9223V83.8543C89.7289 83.4649 90.8972 83.4649 93.6231 83.4649C91.676 83.8543 90.5078 84.2437 89.3395 85.0225C83.4983 87.359 78.0465 90.8637 73.3735 95.9261C77.2677 93.979 82.3301 92.4214 87.3924 92.032V99.8203C87.3924 103.714 85.4454 107.219 81.5512 110.334C86.2242 111.892 92.8442 114.229 97.5172 118.902L109.589 110.334L113.094 107.998L111.536 105.661L108.421 107.219C106.084 107.998 103.748 104.883 103.748 100.989V92.4214C108.031 93.5896 112.704 95.1473 116.988 97.8732L124.776 92.4214L135.68 84.6331L134.901 55.4271ZM103.358 82.2966V48.0282L106.474 45.6917C109.2 43.7446 110.368 43.7446 111.536 44.9129C115.43 48.4176 118.935 54.6482 118.935 58.9318V84.6331C113.483 83.0755 108.031 82.2966 103.358 82.2966Z" fill="white"/>
<path d="M67.9261 166.41C68.3155 162.905 68.7049 157.453 65.5896 150.054C66.7578 151.222 69.4837 150.444 70.652 150.444C76.4932 148.107 82.3344 145.771 88.1756 143.045L84.2815 141.098C77.272 144.602 71.4308 147.328 68.3155 148.497C67.5367 148.497 67.1473 148.886 66.7578 148.886C67.9261 148.107 68.7049 147.718 69.4837 146.939C67.9261 144.602 64.0319 141.487 61.306 141.876C58.1907 142.655 58.5802 144.992 60.5272 150.054C61.306 151.612 63.2531 157.453 63.6425 160.179C64.0319 164.073 62.8637 167.188 57.8013 169.135C53.5178 170.693 49.2342 169.525 46.1189 166.02C44.1718 164.073 44.1718 161.737 44.5612 161.347C43.7824 160.568 42.2248 161.347 41.4459 162.126C40.6671 162.905 40.6671 164.463 41.4459 166.41C42.6142 168.746 43.7824 168.746 45.3401 168.357C50.4025 172.251 55.0754 173.419 60.1378 173.03C68.7049 171.861 71.8202 167.188 72.2096 159.4L69.8732 160.179C69.4837 162.126 69.4837 164.463 67.9261 166.41Z" fill="white"/>
<path d="M48.8492 165.233C53.5221 163.286 56.248 162.507 60.5316 160.56C60.921 160.171 61.3104 159.782 61.3104 159.392C61.3104 158.224 60.5316 156.666 60.1422 155.498C59.7528 154.719 58.9739 154.33 58.5845 154.719C53.9116 157.056 51.5751 158.224 47.2915 160.56C46.9021 160.95 46.5127 161.339 46.5127 161.729C46.9021 162.897 48.0704 165.623 48.8492 165.233Z" fill="white"/>
<path d="M119.716 122.4C116.211 124.347 109.591 128.241 102.192 132.135L106.865 134.472C121.273 127.462 132.177 121.232 132.177 121.232C132.177 121.232 123.999 127.073 108.812 135.25L115.043 138.366C145.027 122.789 160.993 109.549 164.498 106.434C171.897 99.8138 180.075 85.0161 180.854 77.6172C163.33 94.7514 129.451 116.948 119.716 122.4Z" fill="white"/>
<path d="M69.8579 155.891V158.617C79.5933 154.722 88.5498 151.218 96.7275 147.324L90.8863 144.598C85.045 147.324 78.425 150.439 71.4156 153.554C70.6367 153.944 69.8579 154.722 69.8579 155.891Z" fill="white"/>
<path d="M79.6033 122.406C90.1175 128.247 120.492 143.824 131.006 148.886C131.395 149.276 132.174 148.886 132.174 148.497C132.953 146.55 134.121 144.603 132.564 143.434C132.174 144.992 129.838 145.771 129.059 144.213C128.28 142.656 129.448 141.487 130.227 141.098C131.006 140.709 131.785 140.319 133.342 140.709C136.847 141.877 139.184 145.382 137.626 152.002C137.237 153.17 135.679 159.4 135.679 160.958C135.289 164.852 136.847 167.578 141.52 169.525C145.804 171.083 150.087 169.915 153.203 166.41C155.15 164.463 155.15 162.126 154.76 161.737C155.539 160.958 157.097 161.737 157.486 162.516C158.265 163.295 158.654 164.852 157.486 166.799C156.318 169.136 154.371 169.136 153.592 168.746C148.53 172.64 143.857 173.809 138.794 173.419C130.227 172.251 127.501 167.578 127.112 159.79L129.059 160.569C129.059 163.295 129.448 166.02 131.395 168.357C130.227 165.242 130.617 162.126 131.006 159.4C131.395 156.285 132.564 152.002 132.953 151.612C132.174 152.002 130.227 152.002 128.669 151.223C104.526 141.877 82.3292 129.805 64.8056 120.848C90.8963 137.983 101.41 142.266 126.722 154.338C128.28 155.117 128.669 155.506 129.059 156.675V159.011C69.4785 136.425 41.4407 112.281 36.3783 107.608C28.9795 100.988 20.8018 85.8012 20.0229 78.4023C37.1572 94.7577 69.8679 116.954 79.6033 122.406Z" fill="white"/>
<path d="M152.034 160.564C147.751 157.838 145.025 156.28 140.352 154.333C139.962 153.944 139.184 154.333 138.794 154.723C138.405 155.891 137.626 158.227 137.626 159.396C137.626 159.785 138.015 160.174 138.015 160.174C141.91 162.511 144.635 163.29 149.308 164.847C149.698 164.847 149.698 164.847 150.087 164.847C151.645 164.847 152.813 160.953 152.034 160.564Z" fill="white"/>
</g></g>
<defs>
<clipPath id="clip0_8941_82164">
<rect width="206" height="206" fill="white"/>
</clipPath>
</defs>
</svg>
