<svg width="64" height="64" viewBox="0 0 64 64" fill="none" xmlns="http://www.w3.org/2000/svg"><g transform="translate(-7.862, -8.963) scale(1.5725)">
<g clip-path="url(#clip0_8941_82668)">
<path d="M34.0527 13.9897C33.3646 11.5323 31.6935 9.8612 28.8428 8.97651L25.8939 11.2374C25.5007 9.9595 24.8126 9.07481 23.4364 8.38672L23.3381 8.48502L19.5045 11.434L19.996 12.0238L20.8807 11.5323C21.5687 11.7289 21.8636 12.5153 22.0602 13.1051V21.1655C22.65 21.0672 22.9449 21.0672 23.633 21.0672C23.1415 21.1655 22.8466 21.2638 22.5517 21.4604C21.0773 22.0502 19.7011 22.9349 18.5215 24.2128C19.5045 23.7213 20.7824 23.3281 22.0602 23.2298V25.1958C22.0602 26.1788 21.5687 27.0635 20.5858 27.8499C21.7653 28.2431 23.4364 28.8328 24.616 30.0124L27.6633 27.8499L28.5479 27.2601L28.1548 26.6703L27.3684 27.0635C26.7786 27.2601 26.1888 26.4737 26.1888 25.4907V23.3281C27.2701 23.623 28.4496 24.0162 29.5309 24.7043L31.4969 23.3281L34.2493 21.3621L34.0527 13.9897ZM26.0905 20.7724V12.1221L26.8769 11.5323C27.565 11.0408 27.8599 11.0408 28.1548 11.3357C29.1377 12.2204 30.0224 13.7931 30.0224 14.8744V21.3621C28.6462 20.9689 27.2701 20.7724 26.0905 20.7724Z" fill="white"/>
<path d="M17.1462 42.0027C17.2445 41.118 17.3428 39.7418 16.5564 37.8742C16.8513 38.169 17.5394 37.9725 17.8343 37.9725C19.3088 37.3827 20.7833 36.7929 22.2577 36.1048L21.2748 35.6133C19.5054 36.498 18.0309 37.1861 17.2445 37.481C17.0479 37.481 16.9496 37.5793 16.8513 37.5793C17.1462 37.3827 17.3428 37.2844 17.5394 37.0878C17.1462 36.498 16.1632 35.7116 15.4751 35.8099C14.6887 36.0065 14.787 36.5963 15.2785 37.8742C15.4751 38.2673 15.9666 39.7418 16.0649 40.4299C16.1632 41.4129 15.8683 42.1993 14.5904 42.6908C13.5092 43.084 12.4279 42.7891 11.6415 41.9044C11.15 41.4129 11.15 40.8231 11.2483 40.7248C11.0517 40.5282 10.6585 40.7248 10.4619 40.9214C10.2653 41.118 10.2653 41.5112 10.4619 42.0027C10.7568 42.5925 11.0517 42.5925 11.4449 42.4942C12.7228 43.4772 13.9024 43.7721 15.1802 43.6738C17.3428 43.3789 18.1292 42.1993 18.2275 40.2333L17.6377 40.4299C17.5394 40.9214 17.5394 41.5112 17.1462 42.0027Z" fill="white"/>
<path d="M12.3305 41.7082C13.5101 41.2168 14.1982 41.0202 15.2795 40.5287C15.3778 40.4304 15.4761 40.3321 15.4761 40.2338C15.4761 39.9389 15.2795 39.5457 15.1812 39.2508C15.0829 39.0542 14.8863 38.9559 14.788 39.0542C13.6084 39.644 13.0186 39.9389 11.9373 40.5287C11.839 40.627 11.7407 40.7253 11.7407 40.8236C11.839 41.1185 12.1339 41.8065 12.3305 41.7082Z" fill="white"/>
<path d="M30.2193 30.8942C29.3347 31.3857 27.6636 32.3687 25.7959 33.3517L26.9755 33.9414C30.6125 32.1721 33.3649 30.5993 33.3649 30.5993C33.3649 30.5993 31.3006 32.0738 27.467 34.138L29.0398 34.9244C36.6088 30.9925 40.639 27.6503 41.5237 26.8639C43.3914 25.1929 45.4556 21.4575 45.6522 19.5898C41.2288 23.915 32.6768 29.518 30.2193 30.8942Z" fill="white"/>
<path d="M17.6338 39.3468V40.0348C20.0913 39.0519 22.3521 38.1672 24.4164 37.1842L22.9419 36.4961C21.4674 37.1842 19.7964 37.9706 18.027 38.757C17.8304 38.8553 17.6338 39.0519 17.6338 39.3468Z" fill="white"/>
<path d="M20.0939 30.8968C22.748 32.3713 30.4153 36.3032 33.0693 37.5811C33.1676 37.6794 33.3642 37.5811 33.3642 37.4828C33.5608 36.9913 33.8557 36.4998 33.4625 36.2049C33.3642 36.5981 32.7744 36.7947 32.5778 36.4015C32.3812 36.0083 32.6761 35.7134 32.8727 35.6151C33.0693 35.5168 33.2659 35.4185 33.6591 35.5168C34.5438 35.8117 35.1336 36.6964 34.7404 38.3675C34.6421 38.6624 34.2489 40.2352 34.2489 40.6284C34.1506 41.6114 34.5438 42.2994 35.7234 42.7909C36.8047 43.1841 37.886 42.8892 38.6723 42.0046C39.1638 41.5131 39.1638 40.9233 39.0655 40.825C39.2621 40.6284 39.6553 40.825 39.7536 41.0216C39.9502 41.2182 40.0485 41.6114 39.7536 42.1029C39.4587 42.6926 38.9672 42.6926 38.7706 42.5943C37.4928 43.5773 36.3132 43.8722 35.0353 43.7739C32.8727 43.479 32.1846 42.2994 32.0863 40.3335L32.5778 40.5301C32.5778 41.2182 32.6761 41.9063 33.1676 42.496C32.8727 41.7097 32.971 40.9233 33.0693 40.2352C33.1676 39.4488 33.4625 38.3675 33.5608 38.2692C33.3642 38.3675 32.8727 38.3675 32.4795 38.1709C26.385 35.8117 20.782 32.7645 16.3585 30.5036C22.9446 34.8288 25.5986 35.91 31.988 38.9573C32.3812 39.1539 32.4795 39.2522 32.5778 39.5471V40.1369C17.5381 34.4356 10.4606 28.341 9.18274 27.1615C7.31507 25.4904 5.2508 21.6567 5.0542 19.7891C9.37934 23.9176 17.6364 29.5206 20.0939 30.8968Z" fill="white"/>
<path d="M38.3773 40.5276C37.296 39.8395 36.6079 39.4463 35.4283 38.9548C35.33 38.8565 35.1334 38.9548 35.0351 39.0531C34.9368 39.348 34.7402 39.9378 34.7402 40.2327C34.7402 40.331 34.8385 40.4293 34.8385 40.4293C35.8215 41.0191 36.5096 41.2157 37.6892 41.6088C37.7875 41.6088 37.7875 41.6088 37.8858 41.6088C38.279 41.6088 38.5739 40.6259 38.3773 40.5276Z" fill="white"/>
</g>
<defs>
<clipPath id="clip0_8941_82668">
<rect width="52" height="52" fill="white"/>
</clipPath>
</defs>
</g></svg>
